<mxfile host="app.diagrams.net" modified="2022-11-13T09:29:14.067Z" agent="5.0 (Windows NT 10.0; Win64; x64) AppleWebKit/537.36 (KHTML, like Gecko) Chrome/107.0.0.0 Safari/537.36" etag="jFnwpjSEIfHDMQhjyHvT" version="20.5.3" type="github">
  <diagram id="jOL8wAMkXHyEjCjRYB6o" name="第 1 页">
    <mxGraphModel dx="1241" dy="681" grid="1" gridSize="10" guides="1" tooltips="1" connect="1" arrows="1" fold="1" page="1" pageScale="1" pageWidth="827" pageHeight="1169" math="0" shadow="0">
      <root>
        <mxCell id="0" />
        <mxCell id="1" parent="0" />
        <mxCell id="XqqNMPvo0oVUR9lxiBHA-15" style="edgeStyle=orthogonalEdgeStyle;rounded=0;orthogonalLoop=1;jettySize=auto;html=1;entryX=0.469;entryY=0.023;entryDx=0;entryDy=0;entryPerimeter=0;fontSize=11;" edge="1" parent="1" target="XqqNMPvo0oVUR9lxiBHA-12">
          <mxGeometry relative="1" as="geometry">
            <mxPoint x="180" y="560" as="sourcePoint" />
          </mxGeometry>
        </mxCell>
        <mxCell id="XqqNMPvo0oVUR9lxiBHA-58" value="" style="rounded=0;whiteSpace=wrap;html=1;fillColor=none;" vertex="1" parent="1">
          <mxGeometry x="265" y="590" width="299" height="50" as="geometry" />
        </mxCell>
        <mxCell id="XqqNMPvo0oVUR9lxiBHA-59" value="" style="rounded=0;whiteSpace=wrap;html=1;fillColor=none;" vertex="1" parent="1">
          <mxGeometry x="265" y="490" width="300" height="90" as="geometry" />
        </mxCell>
        <mxCell id="XqqNMPvo0oVUR9lxiBHA-63" value="前一个区块的哈希值" style="rounded=0;whiteSpace=wrap;html=1;fillColor=default;" vertex="1" parent="1">
          <mxGeometry x="365" y="510" width="130" height="30" as="geometry" />
        </mxCell>
        <mxCell id="XqqNMPvo0oVUR9lxiBHA-64" value="默克树根" style="rounded=0;whiteSpace=wrap;html=1;fillColor=default;" vertex="1" parent="1">
          <mxGeometry x="379" y="545" width="70" height="30" as="geometry" />
        </mxCell>
        <mxCell id="XqqNMPvo0oVUR9lxiBHA-65" value="时间戳" style="rounded=0;whiteSpace=wrap;html=1;fillColor=default;" vertex="1" parent="1">
          <mxGeometry x="455" y="545" width="70" height="30" as="geometry" />
        </mxCell>
        <mxCell id="XqqNMPvo0oVUR9lxiBHA-67" style="edgeStyle=orthogonalEdgeStyle;rounded=0;orthogonalLoop=1;jettySize=auto;html=1;entryX=0.5;entryY=0;entryDx=0;entryDy=0;fontSize=20;" edge="1" parent="1" target="XqqNMPvo0oVUR9lxiBHA-66">
          <mxGeometry relative="1" as="geometry">
            <mxPoint x="356" y="1300" as="sourcePoint" />
          </mxGeometry>
        </mxCell>
        <mxCell id="XqqNMPvo0oVUR9lxiBHA-69" style="edgeStyle=orthogonalEdgeStyle;rounded=0;orthogonalLoop=1;jettySize=auto;html=1;entryX=0.5;entryY=0;entryDx=0;entryDy=0;fontSize=8;" edge="1" parent="1" source="XqqNMPvo0oVUR9lxiBHA-71">
          <mxGeometry relative="1" as="geometry">
            <mxPoint x="356" y="1270" as="targetPoint" />
          </mxGeometry>
        </mxCell>
        <mxCell id="XqqNMPvo0oVUR9lxiBHA-70" style="edgeStyle=orthogonalEdgeStyle;rounded=0;orthogonalLoop=1;jettySize=auto;html=1;entryX=0.5;entryY=0;entryDx=0;entryDy=0;fontSize=20;" edge="1" parent="1" source="XqqNMPvo0oVUR9lxiBHA-71">
          <mxGeometry relative="1" as="geometry">
            <mxPoint x="416" y="1270" as="targetPoint" />
          </mxGeometry>
        </mxCell>
        <mxCell id="XqqNMPvo0oVUR9lxiBHA-72" value="&lt;span style=&quot;font-size: 16px;&quot;&gt;&lt;b&gt;区块体&lt;/b&gt;&lt;/span&gt;" style="text;html=1;strokeColor=none;fillColor=none;align=center;verticalAlign=middle;whiteSpace=wrap;rounded=0;" vertex="1" parent="1">
          <mxGeometry x="240" y="600" width="120" height="30" as="geometry" />
        </mxCell>
        <mxCell id="XqqNMPvo0oVUR9lxiBHA-73" value="&lt;span style=&quot;font-size: 16px;&quot;&gt;&lt;b&gt;区块头&lt;/b&gt;&lt;/span&gt;" style="text;html=1;strokeColor=none;fillColor=none;align=center;verticalAlign=middle;whiteSpace=wrap;rounded=0;" vertex="1" parent="1">
          <mxGeometry x="250" y="500" width="120" height="30" as="geometry" />
        </mxCell>
        <mxCell id="XqqNMPvo0oVUR9lxiBHA-79" style="edgeStyle=orthogonalEdgeStyle;rounded=0;orthogonalLoop=1;jettySize=auto;html=1;entryX=0.5;entryY=0;entryDx=0;entryDy=0;fontSize=20;" edge="1" parent="1" source="XqqNMPvo0oVUR9lxiBHA-80">
          <mxGeometry relative="1" as="geometry">
            <mxPoint x="425" y="1320" as="targetPoint" />
          </mxGeometry>
        </mxCell>
        <mxCell id="XqqNMPvo0oVUR9lxiBHA-81" value="区块序号" style="rounded=0;whiteSpace=wrap;html=1;fillColor=default;" vertex="1" parent="1">
          <mxGeometry x="295" y="545" width="75" height="30" as="geometry" />
        </mxCell>
        <mxCell id="XqqNMPvo0oVUR9lxiBHA-83" style="edgeStyle=orthogonalEdgeStyle;rounded=0;orthogonalLoop=1;jettySize=auto;html=1;entryX=0.5;entryY=0;entryDx=0;entryDy=0;fontSize=20;" edge="1" parent="1" source="XqqNMPvo0oVUR9lxiBHA-84">
          <mxGeometry relative="1" as="geometry">
            <mxPoint x="505" y="1320" as="targetPoint" />
          </mxGeometry>
        </mxCell>
        <mxCell id="XqqNMPvo0oVUR9lxiBHA-85" style="edgeStyle=orthogonalEdgeStyle;rounded=0;orthogonalLoop=1;jettySize=auto;html=1;entryX=0.5;entryY=0;entryDx=0;entryDy=0;fontSize=8;" edge="1" parent="1" source="XqqNMPvo0oVUR9lxiBHA-87">
          <mxGeometry relative="1" as="geometry">
            <mxPoint x="496" y="1270" as="targetPoint" />
          </mxGeometry>
        </mxCell>
        <mxCell id="XqqNMPvo0oVUR9lxiBHA-86" style="edgeStyle=orthogonalEdgeStyle;rounded=0;orthogonalLoop=1;jettySize=auto;html=1;entryX=0.5;entryY=0;entryDx=0;entryDy=0;fontSize=20;" edge="1" parent="1" source="XqqNMPvo0oVUR9lxiBHA-87">
          <mxGeometry relative="1" as="geometry">
            <mxPoint x="556" y="1270" as="targetPoint" />
          </mxGeometry>
        </mxCell>
        <mxCell id="XqqNMPvo0oVUR9lxiBHA-89" style="edgeStyle=orthogonalEdgeStyle;rounded=0;orthogonalLoop=1;jettySize=auto;html=1;entryX=0.5;entryY=0;entryDx=0;entryDy=0;fontSize=20;" edge="1" parent="1" source="XqqNMPvo0oVUR9lxiBHA-90">
          <mxGeometry relative="1" as="geometry">
            <mxPoint x="565" y="1320" as="targetPoint" />
          </mxGeometry>
        </mxCell>
        <mxCell id="XqqNMPvo0oVUR9lxiBHA-101" style="edgeStyle=orthogonalEdgeStyle;rounded=0;orthogonalLoop=1;jettySize=auto;html=1;entryX=0.5;entryY=0;entryDx=0;entryDy=0;fontSize=8;" edge="1" parent="1" source="XqqNMPvo0oVUR9lxiBHA-103">
          <mxGeometry relative="1" as="geometry">
            <Array as="points">
              <mxPoint x="597" y="510" />
              <mxPoint x="520" y="510" />
            </Array>
            <mxPoint x="520" y="530" as="targetPoint" />
          </mxGeometry>
        </mxCell>
        <mxCell id="XqqNMPvo0oVUR9lxiBHA-102" style="edgeStyle=orthogonalEdgeStyle;rounded=0;orthogonalLoop=1;jettySize=auto;html=1;entryX=0.5;entryY=0;entryDx=0;entryDy=0;fontSize=11;" edge="1" parent="1" target="XqqNMPvo0oVUR9lxiBHA-110">
          <mxGeometry relative="1" as="geometry">
            <Array as="points">
              <mxPoint x="597" y="510" />
              <mxPoint x="681" y="510" />
            </Array>
            <mxPoint x="597" y="490" as="sourcePoint" />
          </mxGeometry>
        </mxCell>
        <mxCell id="XqqNMPvo0oVUR9lxiBHA-112" value="交易数据" style="rounded=0;whiteSpace=wrap;html=1;fillColor=default;" vertex="1" parent="1">
          <mxGeometry x="369" y="600" width="70" height="30" as="geometry" />
        </mxCell>
        <mxCell id="XqqNMPvo0oVUR9lxiBHA-113" value="" style="rounded=0;whiteSpace=wrap;html=1;fillColor=none;" vertex="1" parent="1">
          <mxGeometry x="265" y="400" width="299" height="50" as="geometry" />
        </mxCell>
        <mxCell id="XqqNMPvo0oVUR9lxiBHA-114" value="" style="rounded=0;whiteSpace=wrap;html=1;fillColor=none;" vertex="1" parent="1">
          <mxGeometry x="265" y="300" width="300" height="90" as="geometry" />
        </mxCell>
        <mxCell id="XqqNMPvo0oVUR9lxiBHA-116" value="前一个区块的哈希值" style="rounded=0;whiteSpace=wrap;html=1;fillColor=default;" vertex="1" parent="1">
          <mxGeometry x="365" y="320" width="130" height="30" as="geometry" />
        </mxCell>
        <mxCell id="XqqNMPvo0oVUR9lxiBHA-117" value="默克树根" style="rounded=0;whiteSpace=wrap;html=1;fillColor=default;" vertex="1" parent="1">
          <mxGeometry x="379" y="355" width="70" height="30" as="geometry" />
        </mxCell>
        <mxCell id="XqqNMPvo0oVUR9lxiBHA-118" value="时间戳" style="rounded=0;whiteSpace=wrap;html=1;fillColor=default;" vertex="1" parent="1">
          <mxGeometry x="455" y="355" width="70" height="30" as="geometry" />
        </mxCell>
        <mxCell id="XqqNMPvo0oVUR9lxiBHA-119" value="&lt;span style=&quot;font-size: 16px;&quot;&gt;&lt;b&gt;区块体&lt;/b&gt;&lt;/span&gt;" style="text;html=1;strokeColor=none;fillColor=none;align=center;verticalAlign=middle;whiteSpace=wrap;rounded=0;" vertex="1" parent="1">
          <mxGeometry x="245" y="410" width="120" height="30" as="geometry" />
        </mxCell>
        <mxCell id="XqqNMPvo0oVUR9lxiBHA-120" value="&lt;span style=&quot;font-size: 16px;&quot;&gt;&lt;b&gt;区块头&lt;/b&gt;&lt;/span&gt;" style="text;html=1;strokeColor=none;fillColor=none;align=center;verticalAlign=middle;whiteSpace=wrap;rounded=0;" vertex="1" parent="1">
          <mxGeometry x="245" y="300" width="120" height="30" as="geometry" />
        </mxCell>
        <mxCell id="XqqNMPvo0oVUR9lxiBHA-124" value="区块序号" style="rounded=0;whiteSpace=wrap;html=1;fillColor=default;" vertex="1" parent="1">
          <mxGeometry x="295" y="355" width="75" height="30" as="geometry" />
        </mxCell>
        <mxCell id="XqqNMPvo0oVUR9lxiBHA-125" value="交易数据概要" style="rounded=0;whiteSpace=wrap;html=1;fillColor=default;" vertex="1" parent="1">
          <mxGeometry x="449" y="410" width="91" height="30" as="geometry" />
        </mxCell>
        <mxCell id="XqqNMPvo0oVUR9lxiBHA-126" value="&lt;font style=&quot;font-size: 20px;&quot;&gt;&lt;b&gt;主链&lt;/b&gt;&lt;/font&gt;" style="text;html=1;strokeColor=none;fillColor=none;align=center;verticalAlign=middle;whiteSpace=wrap;rounded=0;fontSize=12;" vertex="1" parent="1">
          <mxGeometry x="205" y="250" width="60" height="30" as="geometry" />
        </mxCell>
        <mxCell id="XqqNMPvo0oVUR9lxiBHA-127" value="交易数据" style="rounded=0;whiteSpace=wrap;html=1;fillColor=default;" vertex="1" parent="1">
          <mxGeometry x="360" y="410" width="70" height="30" as="geometry" />
        </mxCell>
        <mxCell id="XqqNMPvo0oVUR9lxiBHA-129" value="" style="endArrow=classic;html=1;rounded=0;exitX=0.5;exitY=1;exitDx=0;exitDy=0;entryX=0.765;entryY=0;entryDx=0;entryDy=0;entryPerimeter=0;" edge="1" parent="1" source="XqqNMPvo0oVUR9lxiBHA-125" target="XqqNMPvo0oVUR9lxiBHA-59">
          <mxGeometry width="50" height="50" relative="1" as="geometry">
            <mxPoint x="390" y="440" as="sourcePoint" />
            <mxPoint x="500" y="540" as="targetPoint" />
          </mxGeometry>
        </mxCell>
        <mxCell id="XqqNMPvo0oVUR9lxiBHA-130" value="&lt;font style=&quot;font-size: 20px;&quot;&gt;&lt;b&gt;子链&lt;/b&gt;&lt;/font&gt;" style="text;html=1;strokeColor=none;fillColor=none;align=center;verticalAlign=middle;whiteSpace=wrap;rounded=0;fontSize=12;" vertex="1" parent="1">
          <mxGeometry x="200" y="480" width="60" height="30" as="geometry" />
        </mxCell>
      </root>
    </mxGraphModel>
  </diagram>
</mxfile>
